<svg xmlns="http://www.w3.org/2000/svg" xmlns:xlink="http://www.w3.org/1999/xlink" width="40" zoomAndPan="magnify" viewBox="0 0 30 30.000001" height="40" preserveAspectRatio="xMidYMid meet" version="1.0"><defs><clipPath id="id1"><path d="M 3.386719 3 L 26.613281 3 L 26.613281 26.128906 L 3.386719 26.128906 Z M 3.386719 3 " clip-rule="nonzero"/></clipPath></defs><g clip-path="url(#id1)"><path fill="#0a3871" d="M 17.417969 26.042969 C 17.308594 26.042969 17.203125 26.007812 17.117188 25.9375 C 17.003906 25.84375 16.933594 25.707031 16.933594 25.558594 L 16.933594 21.960938 C 16.933594 21.089844 16.824219 20.472656 16.585938 20.019531 C 16.511719 19.886719 16.507812 19.730469 16.570312 19.59375 C 16.632812 19.457031 16.757812 19.355469 16.902344 19.324219 C 19.769531 18.660156 21.773438 16.5625 21.773438 14.21875 C 21.773438 13.058594 21.296875 11.949219 20.394531 11.011719 C 20.253906 10.867188 20.21875 10.65625 20.304688 10.472656 C 20.664062 9.695312 20.585938 8.640625 20.160156 8.007812 C 19.597656 8.226562 18.863281 8.6875 18.386719 9.253906 C 18.257812 9.410156 18.042969 9.464844 17.851562 9.394531 C 16.039062 8.730469 13.964844 8.730469 12.148438 9.394531 C 11.957031 9.464844 11.742188 9.410156 11.613281 9.253906 C 11.136719 8.6875 10.402344 8.226562 9.839844 8.007812 C 9.414062 8.640625 9.335938 9.699219 9.695312 10.472656 C 9.78125 10.65625 9.746094 10.867188 9.605469 11.011719 C 8.703125 11.949219 8.226562 13.058594 8.226562 14.21875 C 8.226562 16.449219 10.027344 18.460938 12.710938 19.222656 C 12.921875 19.28125 13.066406 19.472656 13.066406 19.6875 L 13.066406 20.027344 C 13.066406 20.632812 12.820312 20.972656 12.617188 21.152344 C 12.179688 21.539062 11.613281 21.480469 11.554688 21.472656 C 11.550781 21.472656 11.546875 21.472656 11.542969 21.472656 C 10.746094 21.472656 10.144531 21.027344 9.566406 20.597656 C 9.273438 20.382812 8.980469 20.164062 8.636719 19.980469 C 8.710938 20.082031 8.785156 20.1875 8.859375 20.289062 C 9.585938 21.300781 10.40625 22.445312 11.613281 22.445312 L 12.582031 22.445312 C 12.847656 22.445312 13.066406 22.660156 13.066406 22.929688 L 13.066406 25.558594 C 13.066406 25.707031 13 25.84375 12.882812 25.9375 C 12.769531 26.027344 12.621094 26.0625 12.476562 26.03125 C 7.210938 24.863281 3.386719 20.097656 3.386719 14.703125 C 3.386719 8.296875 8.597656 3.089844 15 3.089844 C 21.402344 3.089844 26.613281 8.296875 26.613281 14.703125 C 26.613281 20.097656 22.789062 24.863281 17.523438 26.03125 C 17.488281 26.039062 17.453125 26.042969 17.417969 26.042969 Z M 17.667969 20.121094 C 17.828125 20.621094 17.902344 21.21875 17.902344 21.960938 L 17.902344 24.9375 C 22.421875 23.65625 25.644531 19.445312 25.644531 14.703125 C 25.644531 8.832031 20.871094 4.058594 15 4.058594 C 9.128906 4.058594 4.355469 8.832031 4.355469 14.703125 C 4.355469 19.445312 7.578125 23.65625 12.097656 24.9375 L 12.097656 23.410156 L 11.613281 23.410156 C 9.910156 23.410156 8.890625 21.992188 8.070312 20.855469 C 7.609375 20.207031 7.128906 19.539062 6.773438 19.539062 C 6.507812 19.539062 6.289062 19.324219 6.289062 19.058594 C 6.289062 18.789062 6.507812 18.574219 6.773438 18.574219 C 8.457031 18.574219 9.390625 19.265625 10.140625 19.820312 C 10.660156 20.207031 11.070312 20.507812 11.613281 20.507812 C 11.667969 20.511719 11.867188 20.527344 11.980469 20.425781 C 12.070312 20.34375 12.09375 20.175781 12.097656 20.046875 C 9.1875 19.089844 7.257812 16.785156 7.257812 14.21875 C 7.257812 12.898438 7.753906 11.644531 8.695312 10.574219 C 8.277344 9.371094 8.535156 7.902344 9.335938 7.101562 C 9.457031 6.980469 9.632812 6.929688 9.800781 6.976562 C 10.445312 7.148438 11.40625 7.648438 12.125 8.378906 C 13.96875 7.78125 16.03125 7.78125 17.875 8.378906 C 18.589844 7.648438 19.550781 7.148438 20.195312 6.976562 C 20.363281 6.929688 20.539062 6.980469 20.664062 7.101562 C 21.460938 7.902344 21.71875 9.371094 21.304688 10.574219 C 22.246094 11.644531 22.742188 12.898438 22.742188 14.21875 C 22.742188 16.859375 20.683594 19.222656 17.667969 20.121094 Z M 17.667969 20.121094 " fill-opacity="1" fill-rule="nonzero"/></g></svg>