<svg xmlns="http://www.w3.org/2000/svg" xmlns:xlink="http://www.w3.org/1999/xlink" width="40" zoomAndPan="magnify" viewBox="0 0 30 30.000001" height="40" preserveAspectRatio="xMidYMid meet" version="1.0"><defs><clipPath id="id1"><path d="M 3.386719 2.902344 L 26.613281 2.902344 L 26.613281 26.128906 L 3.386719 26.128906 Z M 3.386719 2.902344 " clip-rule="nonzero"/></clipPath></defs><path fill="#0a3871" d="M 20.125 15.945312 L 20.125 19.464844 L 17.945312 19.464844 L 17.945312 15.945312 C 17.945312 15.4375 17.945312 14.203125 16.828125 14.203125 C 15.558594 14.203125 15.488281 15.484375 15.488281 15.484375 L 15.488281 19.476562 L 13.296875 19.476562 L 13.296875 12.421875 L 15.488281 12.421875 L 15.488281 13.390625 C 16.007812 12.335938 17.0625 12.257812 17.757812 12.257812 C 18.550781 12.257812 19.253906 12.558594 19.667969 13.246094 C 20.019531 13.820312 20.125 14.644531 20.125 15.945312 Z M 20.125 15.945312 " fill-opacity="1" fill-rule="nonzero"/><path fill="#0a3871" d="M 12.417969 10.203125 C 12.417969 10.371094 12.386719 10.53125 12.320312 10.6875 C 12.253906 10.84375 12.164062 10.980469 12.042969 11.101562 C 11.925781 11.21875 11.789062 11.3125 11.632812 11.375 C 11.476562 11.441406 11.3125 11.472656 11.144531 11.472656 C 10.976562 11.472656 10.8125 11.441406 10.660156 11.375 C 10.503906 11.3125 10.367188 11.21875 10.246094 11.101562 C 10.125 10.980469 10.035156 10.84375 9.96875 10.6875 C 9.90625 10.53125 9.875 10.371094 9.875 10.203125 C 9.875 10.03125 9.90625 9.871094 9.96875 9.714844 C 10.035156 9.558594 10.125 9.421875 10.246094 9.300781 C 10.367188 9.183594 10.503906 9.089844 10.660156 9.027344 C 10.8125 8.960938 10.976562 8.929688 11.144531 8.929688 C 11.3125 8.929688 11.476562 8.960938 11.632812 9.027344 C 11.789062 9.089844 11.925781 9.183594 12.042969 9.300781 C 12.164062 9.421875 12.253906 9.558594 12.320312 9.714844 C 12.386719 9.871094 12.417969 10.03125 12.417969 10.203125 Z M 12.417969 10.203125 " fill-opacity="1" fill-rule="nonzero"/><path fill="#0a3871" d="M 10.058594 12.421875 L 12.242188 12.421875 L 12.242188 19.476562 L 10.058594 19.476562 Z M 10.058594 12.421875 " fill-opacity="1" fill-rule="nonzero"/><g clip-path="url(#id1)"><path fill="#0a3871" d="M 15 26.128906 C 8.601562 26.128906 3.386719 20.925781 3.386719 14.515625 C 3.386719 8.109375 8.601562 2.902344 15 2.902344 C 21.398438 2.902344 26.613281 8.117188 26.613281 14.515625 C 26.613281 20.914062 21.40625 26.128906 15 26.128906 Z M 15 3.539062 C 8.945312 3.539062 4.023438 8.460938 4.023438 14.515625 C 4.023438 20.570312 8.945312 25.492188 15 25.492188 C 21.054688 25.492188 25.976562 20.570312 25.976562 14.515625 C 25.976562 8.460938 21.054688 3.539062 15 3.539062 Z M 15 3.539062 " fill-opacity="1" fill-rule="nonzero"/></g></svg>